<?xml version="1.0" encoding="UTF-8" ?>
<svg xmlns="http://www.w3.org/2000/svg" version="1.1" width="5915" height="500" >
<rect x="0" y="1" width="50" height="500" fill="rgb(200,200,0)" stroke-width="2" stroke="rgb(100,100,0)" />
<text x="25" y="146" style="font-size: 30px; writing-mode: tb; ">input 19 19 4 </text>
<rect x="65" y="1" width="50" height="500" fill="rgb(120,80,190)" stroke-width="2" stroke="rgb(60,40,95)" />
<text x="90" y="64" style="font-size: 30px; writing-mode: tb; ">dense convolution 3 3 32 </text>
<rect x="130" y="1" width="50" height="500" fill="rgb(190,80,80)" stroke-width="2" stroke="rgb(95,40,40)" />
<text x="155" y="229" style="font-size: 30px; writing-mode: tb; ">elu</text>
<rect x="195" y="1" width="50" height="500" fill="rgb(120,80,190)" stroke-width="2" stroke="rgb(60,40,95)" />
<text x="220" y="64" style="font-size: 30px; writing-mode: tb; ">dense convolution 3 3 32 </text>
<rect x="260" y="1" width="50" height="500" fill="rgb(190,80,80)" stroke-width="2" stroke="rgb(95,40,40)" />
<text x="285" y="229" style="font-size: 30px; writing-mode: tb; ">elu</text>
<rect x="325" y="1" width="50" height="500" fill="rgb(120,80,190)" stroke-width="2" stroke="rgb(60,40,95)" />
<text x="350" y="64" style="font-size: 30px; writing-mode: tb; ">dense convolution 3 3 32 </text>
<rect x="390" y="1" width="50" height="500" fill="rgb(190,80,80)" stroke-width="2" stroke="rgb(95,40,40)" />
<text x="415" y="229" style="font-size: 30px; writing-mode: tb; ">elu</text>
<rect x="455" y="1" width="50" height="500" fill="rgb(120,80,190)" stroke-width="2" stroke="rgb(60,40,95)" />
<text x="480" y="64" style="font-size: 30px; writing-mode: tb; ">dense convolution 3 3 32 </text>
<rect x="520" y="1" width="50" height="500" fill="rgb(190,80,80)" stroke-width="2" stroke="rgb(95,40,40)" />
<text x="545" y="229" style="font-size: 30px; writing-mode: tb; ">elu</text>
<rect x="585" y="1" width="50" height="500" fill="rgb(80,80,190)" stroke-width="2" stroke="rgb(40,40,95)" />
<text x="610" y="101" style="font-size: 30px; writing-mode: tb; ">convolution 1 1 128 </text>
<rect x="650" y="1" width="50" height="500" fill="rgb(190,80,80)" stroke-width="2" stroke="rgb(95,40,40)" />
<text x="675" y="229" style="font-size: 30px; writing-mode: tb; ">elu</text>
<rect x="715" y="1" width="50" height="500" fill="rgb(100,100,100)" stroke-width="2" stroke="rgb(50,50,50)" />
<text x="740" y="221" style="font-size: 30px; writing-mode: tb; ">crop</text>
<rect x="780" y="1" width="50" height="500" fill="rgb(120,80,190)" stroke-width="2" stroke="rgb(60,40,95)" />
<text x="805" y="64" style="font-size: 30px; writing-mode: tb; ">dense convolution 3 3 32 </text>
<rect x="845" y="1" width="50" height="500" fill="rgb(190,80,80)" stroke-width="2" stroke="rgb(95,40,40)" />
<text x="870" y="229" style="font-size: 30px; writing-mode: tb; ">elu</text>
<rect x="910" y="1" width="50" height="500" fill="rgb(120,80,190)" stroke-width="2" stroke="rgb(60,40,95)" />
<text x="935" y="64" style="font-size: 30px; writing-mode: tb; ">dense convolution 3 3 32 </text>
<rect x="975" y="1" width="50" height="500" fill="rgb(190,80,80)" stroke-width="2" stroke="rgb(95,40,40)" />
<text x="1000" y="229" style="font-size: 30px; writing-mode: tb; ">elu</text>
<rect x="1040" y="1" width="50" height="500" fill="rgb(120,80,190)" stroke-width="2" stroke="rgb(60,40,95)" />
<text x="1065" y="64" style="font-size: 30px; writing-mode: tb; ">dense convolution 3 3 32 </text>
<rect x="1105" y="1" width="50" height="500" fill="rgb(190,80,80)" stroke-width="2" stroke="rgb(95,40,40)" />
<text x="1130" y="229" style="font-size: 30px; writing-mode: tb; ">elu</text>
<rect x="1170" y="1" width="50" height="500" fill="rgb(120,80,190)" stroke-width="2" stroke="rgb(60,40,95)" />
<text x="1195" y="64" style="font-size: 30px; writing-mode: tb; ">dense convolution 3 3 32 </text>
<rect x="1235" y="1" width="50" height="500" fill="rgb(190,80,80)" stroke-width="2" stroke="rgb(95,40,40)" />
<text x="1260" y="229" style="font-size: 30px; writing-mode: tb; ">elu</text>
<rect x="1300" y="1" width="50" height="500" fill="rgb(80,80,190)" stroke-width="2" stroke="rgb(40,40,95)" />
<text x="1325" y="101" style="font-size: 30px; writing-mode: tb; ">convolution 1 1 128 </text>
<rect x="1365" y="1" width="50" height="500" fill="rgb(190,80,80)" stroke-width="2" stroke="rgb(95,40,40)" />
<text x="1390" y="229" style="font-size: 30px; writing-mode: tb; ">elu</text>
<rect x="1430" y="1" width="50" height="500" fill="rgb(100,100,100)" stroke-width="2" stroke="rgb(50,50,50)" />
<text x="1455" y="221" style="font-size: 30px; writing-mode: tb; ">crop</text>
<rect x="1495" y="1" width="50" height="500" fill="rgb(120,80,190)" stroke-width="2" stroke="rgb(60,40,95)" />
<text x="1520" y="64" style="font-size: 30px; writing-mode: tb; ">dense convolution 3 3 32 </text>
<rect x="1560" y="1" width="50" height="500" fill="rgb(190,80,80)" stroke-width="2" stroke="rgb(95,40,40)" />
<text x="1585" y="229" style="font-size: 30px; writing-mode: tb; ">elu</text>
<rect x="1625" y="1" width="50" height="500" fill="rgb(120,80,190)" stroke-width="2" stroke="rgb(60,40,95)" />
<text x="1650" y="64" style="font-size: 30px; writing-mode: tb; ">dense convolution 3 3 32 </text>
<rect x="1690" y="1" width="50" height="500" fill="rgb(190,80,80)" stroke-width="2" stroke="rgb(95,40,40)" />
<text x="1715" y="229" style="font-size: 30px; writing-mode: tb; ">elu</text>
<rect x="1755" y="1" width="50" height="500" fill="rgb(120,80,190)" stroke-width="2" stroke="rgb(60,40,95)" />
<text x="1780" y="64" style="font-size: 30px; writing-mode: tb; ">dense convolution 3 3 32 </text>
<rect x="1820" y="1" width="50" height="500" fill="rgb(190,80,80)" stroke-width="2" stroke="rgb(95,40,40)" />
<text x="1845" y="229" style="font-size: 30px; writing-mode: tb; ">elu</text>
<rect x="1885" y="1" width="50" height="500" fill="rgb(120,80,190)" stroke-width="2" stroke="rgb(60,40,95)" />
<text x="1910" y="64" style="font-size: 30px; writing-mode: tb; ">dense convolution 3 3 32 </text>
<rect x="1950" y="1" width="50" height="500" fill="rgb(190,80,80)" stroke-width="2" stroke="rgb(95,40,40)" />
<text x="1975" y="229" style="font-size: 30px; writing-mode: tb; ">elu</text>
<rect x="2015" y="1" width="50" height="500" fill="rgb(80,80,190)" stroke-width="2" stroke="rgb(40,40,95)" />
<text x="2040" y="101" style="font-size: 30px; writing-mode: tb; ">convolution 1 1 128 </text>
<rect x="2080" y="1" width="50" height="500" fill="rgb(190,80,80)" stroke-width="2" stroke="rgb(95,40,40)" />
<text x="2105" y="229" style="font-size: 30px; writing-mode: tb; ">elu</text>
<rect x="2145" y="1" width="50" height="500" fill="rgb(100,100,100)" stroke-width="2" stroke="rgb(50,50,50)" />
<text x="2170" y="221" style="font-size: 30px; writing-mode: tb; ">crop</text>
<rect x="2210" y="1" width="50" height="500" fill="rgb(120,80,190)" stroke-width="2" stroke="rgb(60,40,95)" />
<text x="2235" y="64" style="font-size: 30px; writing-mode: tb; ">dense convolution 3 3 32 </text>
<rect x="2275" y="1" width="50" height="500" fill="rgb(190,80,80)" stroke-width="2" stroke="rgb(95,40,40)" />
<text x="2300" y="229" style="font-size: 30px; writing-mode: tb; ">elu</text>
<rect x="2340" y="1" width="50" height="500" fill="rgb(120,80,190)" stroke-width="2" stroke="rgb(60,40,95)" />
<text x="2365" y="64" style="font-size: 30px; writing-mode: tb; ">dense convolution 3 3 32 </text>
<rect x="2405" y="1" width="50" height="500" fill="rgb(190,80,80)" stroke-width="2" stroke="rgb(95,40,40)" />
<text x="2430" y="229" style="font-size: 30px; writing-mode: tb; ">elu</text>
<rect x="2470" y="1" width="50" height="500" fill="rgb(120,80,190)" stroke-width="2" stroke="rgb(60,40,95)" />
<text x="2495" y="64" style="font-size: 30px; writing-mode: tb; ">dense convolution 3 3 32 </text>
<rect x="2535" y="1" width="50" height="500" fill="rgb(190,80,80)" stroke-width="2" stroke="rgb(95,40,40)" />
<text x="2560" y="229" style="font-size: 30px; writing-mode: tb; ">elu</text>
<rect x="2600" y="1" width="50" height="500" fill="rgb(120,80,190)" stroke-width="2" stroke="rgb(60,40,95)" />
<text x="2625" y="64" style="font-size: 30px; writing-mode: tb; ">dense convolution 3 3 32 </text>
<rect x="2665" y="1" width="50" height="500" fill="rgb(190,80,80)" stroke-width="2" stroke="rgb(95,40,40)" />
<text x="2690" y="229" style="font-size: 30px; writing-mode: tb; ">elu</text>
<rect x="2730" y="1" width="50" height="500" fill="rgb(80,80,190)" stroke-width="2" stroke="rgb(40,40,95)" />
<text x="2755" y="101" style="font-size: 30px; writing-mode: tb; ">convolution 1 1 128 </text>
<rect x="2795" y="1" width="50" height="500" fill="rgb(190,80,80)" stroke-width="2" stroke="rgb(95,40,40)" />
<text x="2820" y="229" style="font-size: 30px; writing-mode: tb; ">elu</text>
<rect x="2860" y="1" width="50" height="500" fill="rgb(100,100,100)" stroke-width="2" stroke="rgb(50,50,50)" />
<text x="2885" y="221" style="font-size: 30px; writing-mode: tb; ">crop</text>
<rect x="2925" y="1" width="50" height="500" fill="rgb(120,80,190)" stroke-width="2" stroke="rgb(60,40,95)" />
<text x="2950" y="64" style="font-size: 30px; writing-mode: tb; ">dense convolution 3 3 32 </text>
<rect x="2990" y="1" width="50" height="500" fill="rgb(190,80,80)" stroke-width="2" stroke="rgb(95,40,40)" />
<text x="3015" y="229" style="font-size: 30px; writing-mode: tb; ">elu</text>
<rect x="3055" y="1" width="50" height="500" fill="rgb(120,80,190)" stroke-width="2" stroke="rgb(60,40,95)" />
<text x="3080" y="64" style="font-size: 30px; writing-mode: tb; ">dense convolution 3 3 32 </text>
<rect x="3120" y="1" width="50" height="500" fill="rgb(190,80,80)" stroke-width="2" stroke="rgb(95,40,40)" />
<text x="3145" y="229" style="font-size: 30px; writing-mode: tb; ">elu</text>
<rect x="3185" y="1" width="50" height="500" fill="rgb(120,80,190)" stroke-width="2" stroke="rgb(60,40,95)" />
<text x="3210" y="64" style="font-size: 30px; writing-mode: tb; ">dense convolution 3 3 32 </text>
<rect x="3250" y="1" width="50" height="500" fill="rgb(190,80,80)" stroke-width="2" stroke="rgb(95,40,40)" />
<text x="3275" y="229" style="font-size: 30px; writing-mode: tb; ">elu</text>
<rect x="3315" y="1" width="50" height="500" fill="rgb(120,80,190)" stroke-width="2" stroke="rgb(60,40,95)" />
<text x="3340" y="64" style="font-size: 30px; writing-mode: tb; ">dense convolution 3 3 32 </text>
<rect x="3380" y="1" width="50" height="500" fill="rgb(190,80,80)" stroke-width="2" stroke="rgb(95,40,40)" />
<text x="3405" y="229" style="font-size: 30px; writing-mode: tb; ">elu</text>
<rect x="3445" y="1" width="50" height="500" fill="rgb(80,80,190)" stroke-width="2" stroke="rgb(40,40,95)" />
<text x="3470" y="101" style="font-size: 30px; writing-mode: tb; ">convolution 1 1 128 </text>
<rect x="3510" y="1" width="50" height="500" fill="rgb(190,80,80)" stroke-width="2" stroke="rgb(95,40,40)" />
<text x="3535" y="229" style="font-size: 30px; writing-mode: tb; ">elu</text>
<rect x="3575" y="1" width="50" height="500" fill="rgb(100,100,100)" stroke-width="2" stroke="rgb(50,50,50)" />
<text x="3600" y="221" style="font-size: 30px; writing-mode: tb; ">crop</text>
<rect x="3640" y="1" width="50" height="500" fill="rgb(120,80,190)" stroke-width="2" stroke="rgb(60,40,95)" />
<text x="3665" y="64" style="font-size: 30px; writing-mode: tb; ">dense convolution 3 3 64 </text>
<rect x="3705" y="1" width="50" height="500" fill="rgb(190,80,80)" stroke-width="2" stroke="rgb(95,40,40)" />
<text x="3730" y="229" style="font-size: 30px; writing-mode: tb; ">elu</text>
<rect x="3770" y="1" width="50" height="500" fill="rgb(120,80,190)" stroke-width="2" stroke="rgb(60,40,95)" />
<text x="3795" y="64" style="font-size: 30px; writing-mode: tb; ">dense convolution 3 3 64 </text>
<rect x="3835" y="1" width="50" height="500" fill="rgb(190,80,80)" stroke-width="2" stroke="rgb(95,40,40)" />
<text x="3860" y="229" style="font-size: 30px; writing-mode: tb; ">elu</text>
<rect x="3900" y="1" width="50" height="500" fill="rgb(120,80,190)" stroke-width="2" stroke="rgb(60,40,95)" />
<text x="3925" y="64" style="font-size: 30px; writing-mode: tb; ">dense convolution 3 3 64 </text>
<rect x="3965" y="1" width="50" height="500" fill="rgb(190,80,80)" stroke-width="2" stroke="rgb(95,40,40)" />
<text x="3990" y="229" style="font-size: 30px; writing-mode: tb; ">elu</text>
<rect x="4030" y="1" width="50" height="500" fill="rgb(120,80,190)" stroke-width="2" stroke="rgb(60,40,95)" />
<text x="4055" y="64" style="font-size: 30px; writing-mode: tb; ">dense convolution 3 3 64 </text>
<rect x="4095" y="1" width="50" height="500" fill="rgb(190,80,80)" stroke-width="2" stroke="rgb(95,40,40)" />
<text x="4120" y="229" style="font-size: 30px; writing-mode: tb; ">elu</text>
<rect x="4160" y="1" width="50" height="500" fill="rgb(80,80,190)" stroke-width="2" stroke="rgb(40,40,95)" />
<text x="4185" y="101" style="font-size: 30px; writing-mode: tb; ">convolution 1 1 256 </text>
<rect x="4225" y="1" width="50" height="500" fill="rgb(190,80,80)" stroke-width="2" stroke="rgb(95,40,40)" />
<text x="4250" y="229" style="font-size: 30px; writing-mode: tb; ">elu</text>
<rect x="4290" y="1" width="50" height="500" fill="rgb(100,100,100)" stroke-width="2" stroke="rgb(50,50,50)" />
<text x="4315" y="221" style="font-size: 30px; writing-mode: tb; ">crop</text>
<rect x="4355" y="1" width="50" height="500" fill="rgb(120,80,190)" stroke-width="2" stroke="rgb(60,40,95)" />
<text x="4380" y="64" style="font-size: 30px; writing-mode: tb; ">dense convolution 3 3 64 </text>
<rect x="4420" y="1" width="50" height="500" fill="rgb(190,80,80)" stroke-width="2" stroke="rgb(95,40,40)" />
<text x="4445" y="229" style="font-size: 30px; writing-mode: tb; ">elu</text>
<rect x="4485" y="1" width="50" height="500" fill="rgb(120,80,190)" stroke-width="2" stroke="rgb(60,40,95)" />
<text x="4510" y="64" style="font-size: 30px; writing-mode: tb; ">dense convolution 3 3 64 </text>
<rect x="4550" y="1" width="50" height="500" fill="rgb(190,80,80)" stroke-width="2" stroke="rgb(95,40,40)" />
<text x="4575" y="229" style="font-size: 30px; writing-mode: tb; ">elu</text>
<rect x="4615" y="1" width="50" height="500" fill="rgb(120,80,190)" stroke-width="2" stroke="rgb(60,40,95)" />
<text x="4640" y="64" style="font-size: 30px; writing-mode: tb; ">dense convolution 3 3 64 </text>
<rect x="4680" y="1" width="50" height="500" fill="rgb(190,80,80)" stroke-width="2" stroke="rgb(95,40,40)" />
<text x="4705" y="229" style="font-size: 30px; writing-mode: tb; ">elu</text>
<rect x="4745" y="1" width="50" height="500" fill="rgb(120,80,190)" stroke-width="2" stroke="rgb(60,40,95)" />
<text x="4770" y="64" style="font-size: 30px; writing-mode: tb; ">dense convolution 3 3 64 </text>
<rect x="4810" y="1" width="50" height="500" fill="rgb(190,80,80)" stroke-width="2" stroke="rgb(95,40,40)" />
<text x="4835" y="229" style="font-size: 30px; writing-mode: tb; ">elu</text>
<rect x="4875" y="1" width="50" height="500" fill="rgb(80,80,190)" stroke-width="2" stroke="rgb(40,40,95)" />
<text x="4900" y="101" style="font-size: 30px; writing-mode: tb; ">convolution 1 1 256 </text>
<rect x="4940" y="1" width="50" height="500" fill="rgb(190,80,80)" stroke-width="2" stroke="rgb(95,40,40)" />
<text x="4965" y="229" style="font-size: 30px; writing-mode: tb; ">elu</text>
<rect x="5005" y="1" width="50" height="500" fill="rgb(100,100,100)" stroke-width="2" stroke="rgb(50,50,50)" />
<text x="5030" y="221" style="font-size: 30px; writing-mode: tb; ">crop</text>
<rect x="5070" y="1" width="50" height="500" fill="rgb(120,80,190)" stroke-width="2" stroke="rgb(60,40,95)" />
<text x="5095" y="64" style="font-size: 30px; writing-mode: tb; ">dense convolution 3 3 64 </text>
<rect x="5135" y="1" width="50" height="500" fill="rgb(190,80,80)" stroke-width="2" stroke="rgb(95,40,40)" />
<text x="5160" y="229" style="font-size: 30px; writing-mode: tb; ">elu</text>
<rect x="5200" y="1" width="50" height="500" fill="rgb(120,80,190)" stroke-width="2" stroke="rgb(60,40,95)" />
<text x="5225" y="64" style="font-size: 30px; writing-mode: tb; ">dense convolution 3 3 64 </text>
<rect x="5265" y="1" width="50" height="500" fill="rgb(190,80,80)" stroke-width="2" stroke="rgb(95,40,40)" />
<text x="5290" y="229" style="font-size: 30px; writing-mode: tb; ">elu</text>
<rect x="5330" y="1" width="50" height="500" fill="rgb(120,80,190)" stroke-width="2" stroke="rgb(60,40,95)" />
<text x="5355" y="64" style="font-size: 30px; writing-mode: tb; ">dense convolution 3 3 64 </text>
<rect x="5395" y="1" width="50" height="500" fill="rgb(190,80,80)" stroke-width="2" stroke="rgb(95,40,40)" />
<text x="5420" y="229" style="font-size: 30px; writing-mode: tb; ">elu</text>
<rect x="5460" y="1" width="50" height="500" fill="rgb(120,80,190)" stroke-width="2" stroke="rgb(60,40,95)" />
<text x="5485" y="64" style="font-size: 30px; writing-mode: tb; ">dense convolution 3 3 64 </text>
<rect x="5525" y="1" width="50" height="500" fill="rgb(190,80,80)" stroke-width="2" stroke="rgb(95,40,40)" />
<text x="5550" y="229" style="font-size: 30px; writing-mode: tb; ">elu</text>
<rect x="5590" y="1" width="50" height="500" fill="rgb(80,80,190)" stroke-width="2" stroke="rgb(40,40,95)" />
<text x="5615" y="101" style="font-size: 30px; writing-mode: tb; ">convolution 1 1 256 </text>
<rect x="5655" y="1" width="50" height="500" fill="rgb(190,80,80)" stroke-width="2" stroke="rgb(95,40,40)" />
<text x="5680" y="229" style="font-size: 30px; writing-mode: tb; ">elu</text>
<rect x="5720" y="1" width="50" height="500" fill="rgb(100,100,100)" stroke-width="2" stroke="rgb(50,50,50)" />
<text x="5745" y="221" style="font-size: 30px; writing-mode: tb; ">crop</text>
<rect x="5785" y="1" width="50" height="500" fill="rgb(100,100,100)" stroke-width="2" stroke="rgb(50,50,50)" />
<text x="5810" y="199" style="font-size: 30px; writing-mode: tb; ">dropout</text>
<rect x="5850" y="1" width="50" height="500" fill="rgb(190,190,80)" stroke-width="2" stroke="rgb(95,95,40)" />
<text x="5875" y="139" style="font-size: 30px; writing-mode: tb; ">output 1 1 362 </text>
</svg>