<?xml version="1.0" encoding="UTF-8" ?>
<svg xmlns="http://www.w3.org/2000/svg" version="1.1" width="450" height="500" >
<rect x="0" y="0" width="50" height="50" fill="rgb(200,150,150)" stroke-width="2" stroke="rgb(100,75,75)" />
<text x="12" y="25" style="font-size: 20px; ">60</text>
<rect x="50" y="0" width="50" height="50" fill="rgb(150,150,200)" stroke-width="2" stroke="rgb(75,75,100)" />
<text x="62" y="25" style="font-size: 20px; ">31</text>
<rect x="100" y="0" width="50" height="50" fill="rgb(150,150,200)" stroke-width="2" stroke="rgb(75,75,100)" />
<text x="112" y="25" style="font-size: 20px; ">29</text>
<rect x="150" y="0" width="50" height="50" fill="rgb(150,150,200)" stroke-width="2" stroke="rgb(75,75,100)" />
<text x="162" y="25" style="font-size: 20px; ">29</text>
<rect x="200" y="0" width="50" height="50" fill="rgb(150,150,200)" stroke-width="2" stroke="rgb(75,75,100)" />
<text x="212" y="25" style="font-size: 20px; ">32</text>
<rect x="250" y="0" width="50" height="50" fill="rgb(150,150,200)" stroke-width="2" stroke="rgb(75,75,100)" />
<text x="262" y="25" style="font-size: 20px; ">29</text>
<rect x="300" y="0" width="50" height="50" fill="rgb(150,150,200)" stroke-width="2" stroke="rgb(75,75,100)" />
<text x="312" y="25" style="font-size: 20px; ">29</text>
<rect x="350" y="0" width="50" height="50" fill="rgb(150,150,200)" stroke-width="2" stroke="rgb(75,75,100)" />
<text x="362" y="25" style="font-size: 20px; ">30</text>
<rect x="400" y="0" width="50" height="50" fill="rgb(200,150,150)" stroke-width="2" stroke="rgb(100,75,75)" />
<text x="412" y="25" style="font-size: 20px; ">60</text>
<rect x="0" y="50" width="50" height="50" fill="rgb(150,150,200)" stroke-width="2" stroke="rgb(75,75,100)" />
<text x="12" y="75" style="font-size: 20px; ">22</text>
<rect x="50" y="50" width="50" height="50" fill="rgb(150,150,200)" stroke-width="2" stroke="rgb(75,75,100)" />
<text x="62" y="75" style="font-size: 20px; ">31</text>
<rect x="100" y="50" width="50" height="50" fill="rgb(150,150,200)" stroke-width="2" stroke="rgb(75,75,100)" />
<text x="112" y="75" style="font-size: 20px; ">28</text>
<rect x="150" y="50" width="50" height="50" fill="rgb(150,150,200)" stroke-width="2" stroke="rgb(75,75,100)" />
<text x="162" y="75" style="font-size: 20px; ">26</text>
<rect x="200" y="50" width="50" height="50" fill="rgb(150,150,200)" stroke-width="2" stroke="rgb(75,75,100)" />
<text x="212" y="75" style="font-size: 20px; ">31</text>
<rect x="250" y="50" width="50" height="50" fill="rgb(150,150,200)" stroke-width="2" stroke="rgb(75,75,100)" />
<text x="262" y="75" style="font-size: 20px; ">26</text>
<rect x="300" y="50" width="50" height="50" fill="rgb(150,150,200)" stroke-width="2" stroke="rgb(75,75,100)" />
<text x="312" y="75" style="font-size: 20px; ">25</text>
<rect x="350" y="50" width="50" height="50" fill="rgb(150,150,200)" stroke-width="2" stroke="rgb(75,75,100)" />
<text x="362" y="75" style="font-size: 20px; ">29</text>
<rect x="400" y="50" width="50" height="50" fill="rgb(200,150,150)" stroke-width="2" stroke="rgb(100,75,75)" />
<text x="412" y="75" style="font-size: 20px; ">33</text>
<rect x="0" y="100" width="50" height="50" fill="rgb(150,150,200)" stroke-width="2" stroke="rgb(75,75,100)" />
<text x="12" y="125" style="font-size: 20px; ">30</text>
<rect x="50" y="100" width="50" height="50" fill="rgb(200,150,150)" stroke-width="2" stroke="rgb(100,75,75)" />
<text x="62" y="125" style="font-size: 20px; ">32</text>
<rect x="100" y="100" width="50" height="50" fill="rgb(150,150,200)" stroke-width="2" stroke="rgb(75,75,100)" />
<text x="112" y="125" style="font-size: 20px; ">25</text>
<rect x="150" y="100" width="50" height="50" fill="rgb(150,150,200)" stroke-width="2" stroke="rgb(75,75,100)" />
<text x="162" y="125" style="font-size: 20px; ">30</text>
<rect x="200" y="100" width="50" height="50" fill="rgb(150,150,200)" stroke-width="2" stroke="rgb(75,75,100)" />
<text x="212" y="125" style="font-size: 20px; ">27</text>
<rect x="250" y="100" width="50" height="50" fill="rgb(150,150,200)" stroke-width="2" stroke="rgb(75,75,100)" />
<text x="262" y="125" style="font-size: 20px; ">26</text>
<rect x="300" y="100" width="50" height="50" fill="rgb(150,150,200)" stroke-width="2" stroke="rgb(75,75,100)" />
<text x="312" y="125" style="font-size: 20px; ">26</text>
<rect x="350" y="100" width="50" height="50" fill="rgb(150,150,200)" stroke-width="2" stroke="rgb(75,75,100)" />
<text x="362" y="125" style="font-size: 20px; ">28</text>
<rect x="400" y="100" width="50" height="50" fill="rgb(150,150,200)" stroke-width="2" stroke="rgb(75,75,100)" />
<text x="412" y="125" style="font-size: 20px; ">30</text>
<rect x="0" y="150" width="50" height="50" fill="rgb(150,150,200)" stroke-width="2" stroke="rgb(75,75,100)" />
<text x="12" y="175" style="font-size: 20px; ">32</text>
<rect x="50" y="150" width="50" height="50" fill="rgb(150,150,200)" stroke-width="2" stroke="rgb(75,75,100)" />
<text x="62" y="175" style="font-size: 20px; ">28</text>
<rect x="100" y="150" width="50" height="50" fill="rgb(150,150,200)" stroke-width="2" stroke="rgb(75,75,100)" />
<text x="112" y="175" style="font-size: 20px; ">27</text>
<rect x="150" y="150" width="50" height="50" fill="rgb(200,150,150)" stroke-width="2" stroke="rgb(100,75,75)" />
<text x="162" y="175" style="font-size: 20px; ">33</text>
<rect x="200" y="150" width="50" height="50" fill="rgb(200,150,150)" stroke-width="2" stroke="rgb(100,75,75)" />
<text x="212" y="175" style="font-size: 20px; ">38</text>
<rect x="250" y="150" width="50" height="50" fill="rgb(150,150,200)" stroke-width="2" stroke="rgb(75,75,100)" />
<text x="262" y="175" style="font-size: 20px; ">31</text>
<rect x="300" y="150" width="50" height="50" fill="rgb(150,150,200)" stroke-width="2" stroke="rgb(75,75,100)" />
<text x="312" y="175" style="font-size: 20px; ">30</text>
<rect x="350" y="150" width="50" height="50" fill="rgb(150,150,200)" stroke-width="2" stroke="rgb(75,75,100)" />
<text x="362" y="175" style="font-size: 20px; ">30</text>
<rect x="400" y="150" width="50" height="50" fill="rgb(150,150,200)" stroke-width="2" stroke="rgb(75,75,100)" />
<text x="412" y="175" style="font-size: 20px; ">31</text>
<rect x="0" y="200" width="50" height="50" fill="rgb(200,150,150)" stroke-width="2" stroke="rgb(100,75,75)" />
<text x="12" y="225" style="font-size: 20px; ">35</text>
<rect x="50" y="200" width="50" height="50" fill="rgb(150,150,200)" stroke-width="2" stroke="rgb(75,75,100)" />
<text x="62" y="225" style="font-size: 20px; ">29</text>
<rect x="100" y="200" width="50" height="50" fill="rgb(150,150,200)" stroke-width="2" stroke="rgb(75,75,100)" />
<text x="112" y="225" style="font-size: 20px; ">30</text>
<rect x="150" y="200" width="50" height="50" fill="rgb(200,150,150)" stroke-width="2" stroke="rgb(100,75,75)" />
<text x="162" y="225" style="font-size: 20px; ">35</text>
<rect x="200" y="200" width="50" height="50" fill="rgb(200,150,150)" stroke-width="2" stroke="rgb(100,75,75)" />
<text x="212" y="225" style="font-size: 20px; ">54</text>
<rect x="250" y="200" width="50" height="50" fill="rgb(200,150,150)" stroke-width="2" stroke="rgb(100,75,75)" />
<text x="262" y="225" style="font-size: 20px; ">35</text>
<rect x="300" y="200" width="50" height="50" fill="rgb(150,150,200)" stroke-width="2" stroke="rgb(75,75,100)" />
<text x="312" y="225" style="font-size: 20px; ">31</text>
<rect x="350" y="200" width="50" height="50" fill="rgb(150,150,200)" stroke-width="2" stroke="rgb(75,75,100)" />
<text x="362" y="225" style="font-size: 20px; ">27</text>
<rect x="400" y="200" width="50" height="50" fill="rgb(150,150,200)" stroke-width="2" stroke="rgb(75,75,100)" />
<text x="412" y="225" style="font-size: 20px; ">30</text>
<rect x="0" y="250" width="50" height="50" fill="rgb(150,150,200)" stroke-width="2" stroke="rgb(75,75,100)" />
<text x="12" y="275" style="font-size: 20px; ">24</text>
<rect x="50" y="250" width="50" height="50" fill="rgb(150,150,200)" stroke-width="2" stroke="rgb(75,75,100)" />
<text x="62" y="275" style="font-size: 20px; ">26</text>
<rect x="100" y="250" width="50" height="50" fill="rgb(150,150,200)" stroke-width="2" stroke="rgb(75,75,100)" />
<text x="112" y="275" style="font-size: 20px; ">30</text>
<rect x="150" y="250" width="50" height="50" fill="rgb(150,150,200)" stroke-width="2" stroke="rgb(75,75,100)" />
<text x="162" y="275" style="font-size: 20px; ">30</text>
<rect x="200" y="250" width="50" height="50" fill="rgb(200,150,150)" stroke-width="2" stroke="rgb(100,75,75)" />
<text x="212" y="275" style="font-size: 20px; ">35</text>
<rect x="250" y="250" width="50" height="50" fill="rgb(150,150,200)" stroke-width="2" stroke="rgb(75,75,100)" />
<text x="262" y="275" style="font-size: 20px; ">30</text>
<rect x="300" y="250" width="50" height="50" fill="rgb(150,150,200)" stroke-width="2" stroke="rgb(75,75,100)" />
<text x="312" y="275" style="font-size: 20px; ">27</text>
<rect x="350" y="250" width="50" height="50" fill="rgb(200,150,150)" stroke-width="2" stroke="rgb(100,75,75)" />
<text x="362" y="275" style="font-size: 20px; ">33</text>
<rect x="400" y="250" width="50" height="50" fill="rgb(150,150,200)" stroke-width="2" stroke="rgb(75,75,100)" />
<text x="412" y="275" style="font-size: 20px; ">28</text>
<rect x="0" y="300" width="50" height="50" fill="rgb(200,150,150)" stroke-width="2" stroke="rgb(100,75,75)" />
<text x="12" y="325" style="font-size: 20px; ">37</text>
<rect x="50" y="300" width="50" height="50" fill="rgb(200,150,150)" stroke-width="2" stroke="rgb(100,75,75)" />
<text x="62" y="325" style="font-size: 20px; ">34</text>
<rect x="100" y="300" width="50" height="50" fill="rgb(150,150,200)" stroke-width="2" stroke="rgb(75,75,100)" />
<text x="112" y="325" style="font-size: 20px; ">24</text>
<rect x="150" y="300" width="50" height="50" fill="rgb(150,150,200)" stroke-width="2" stroke="rgb(75,75,100)" />
<text x="162" y="325" style="font-size: 20px; ">31</text>
<rect x="200" y="300" width="50" height="50" fill="rgb(150,150,200)" stroke-width="2" stroke="rgb(75,75,100)" />
<text x="212" y="325" style="font-size: 20px; ">26</text>
<rect x="250" y="300" width="50" height="50" fill="rgb(150,150,200)" stroke-width="2" stroke="rgb(75,75,100)" />
<text x="262" y="325" style="font-size: 20px; ">26</text>
<rect x="300" y="300" width="50" height="50" fill="rgb(150,150,200)" stroke-width="2" stroke="rgb(75,75,100)" />
<text x="312" y="325" style="font-size: 20px; ">31</text>
<rect x="350" y="300" width="50" height="50" fill="rgb(150,150,200)" stroke-width="2" stroke="rgb(75,75,100)" />
<text x="362" y="325" style="font-size: 20px; ">31</text>
<rect x="400" y="300" width="50" height="50" fill="rgb(200,150,150)" stroke-width="2" stroke="rgb(100,75,75)" />
<text x="412" y="325" style="font-size: 20px; ">33</text>
<rect x="0" y="350" width="50" height="50" fill="rgb(150,150,200)" stroke-width="2" stroke="rgb(75,75,100)" />
<text x="12" y="375" style="font-size: 20px; ">30</text>
<rect x="50" y="350" width="50" height="50" fill="rgb(200,150,150)" stroke-width="2" stroke="rgb(100,75,75)" />
<text x="62" y="375" style="font-size: 20px; ">33</text>
<rect x="100" y="350" width="50" height="50" fill="rgb(150,150,200)" stroke-width="2" stroke="rgb(75,75,100)" />
<text x="112" y="375" style="font-size: 20px; ">26</text>
<rect x="150" y="350" width="50" height="50" fill="rgb(150,150,200)" stroke-width="2" stroke="rgb(75,75,100)" />
<text x="162" y="375" style="font-size: 20px; ">26</text>
<rect x="200" y="350" width="50" height="50" fill="rgb(150,150,200)" stroke-width="2" stroke="rgb(75,75,100)" />
<text x="212" y="375" style="font-size: 20px; ">27</text>
<rect x="250" y="350" width="50" height="50" fill="rgb(150,150,200)" stroke-width="2" stroke="rgb(75,75,100)" />
<text x="262" y="375" style="font-size: 20px; ">23</text>
<rect x="300" y="350" width="50" height="50" fill="rgb(150,150,200)" stroke-width="2" stroke="rgb(75,75,100)" />
<text x="312" y="375" style="font-size: 20px; ">28</text>
<rect x="350" y="350" width="50" height="50" fill="rgb(150,150,200)" stroke-width="2" stroke="rgb(75,75,100)" />
<text x="362" y="375" style="font-size: 20px; ">28</text>
<rect x="400" y="350" width="50" height="50" fill="rgb(150,150,200)" stroke-width="2" stroke="rgb(75,75,100)" />
<text x="412" y="375" style="font-size: 20px; ">31</text>
<rect x="0" y="400" width="50" height="50" fill="rgb(200,150,150)" stroke-width="2" stroke="rgb(100,75,75)" />
<text x="12" y="425" style="font-size: 20px; ">55</text>
<rect x="50" y="400" width="50" height="50" fill="rgb(150,150,200)" stroke-width="2" stroke="rgb(75,75,100)" />
<text x="62" y="425" style="font-size: 20px; ">30</text>
<rect x="100" y="400" width="50" height="50" fill="rgb(150,150,200)" stroke-width="2" stroke="rgb(75,75,100)" />
<text x="112" y="425" style="font-size: 20px; ">28</text>
<rect x="150" y="400" width="50" height="50" fill="rgb(200,150,150)" stroke-width="2" stroke="rgb(100,75,75)" />
<text x="162" y="425" style="font-size: 20px; ">34</text>
<rect x="200" y="400" width="50" height="50" fill="rgb(200,150,150)" stroke-width="2" stroke="rgb(100,75,75)" />
<text x="212" y="425" style="font-size: 20px; ">36</text>
<rect x="250" y="400" width="50" height="50" fill="rgb(200,150,150)" stroke-width="2" stroke="rgb(100,75,75)" />
<text x="262" y="425" style="font-size: 20px; ">39</text>
<rect x="300" y="400" width="50" height="50" fill="rgb(200,150,150)" stroke-width="2" stroke="rgb(100,75,75)" />
<text x="312" y="425" style="font-size: 20px; ">33</text>
<rect x="350" y="400" width="50" height="50" fill="rgb(150,150,200)" stroke-width="2" stroke="rgb(75,75,100)" />
<text x="362" y="425" style="font-size: 20px; ">29</text>
<rect x="400" y="400" width="50" height="50" fill="rgb(200,150,150)" stroke-width="2" stroke="rgb(100,75,75)" />
<text x="412" y="425" style="font-size: 20px; ">57</text>
<rect x="400" y="450" width="50" height="50" fill="rgb(200,150,150)" stroke-width="2" stroke="rgb(100,75,75)" />
<text x="412" y="475" style="font-size: 20px; ">75</text>
</svg>